<?xml version="1.0" encoding="UTF-8"?>
<!DOCTYPE svg PUBLIC "-//W3C//DTD SVG 1.1//EN" "http://www.w3.org/Graphics/SVG/1.1/DTD/svg11.dtd">
<!-- Creator: CorelDRAW X7 -->
<svg xmlns="http://www.w3.org/2000/svg" xml:space="preserve" width="3.01008cm" height="3.00833cm" version="1.1" style="shape-rendering:geometricPrecision; text-rendering:geometricPrecision; image-rendering:optimizeQuality; fill-rule:evenodd; clip-rule:evenodd"
viewBox="0 0 482 482"
 xmlns:xlink="http://www.w3.org/1999/xlink">
 <defs>
  <style type="text/css">
   <![CDATA[
    .str0 {stroke:#373435;stroke-width:3.20563}
    .fil1 {fill:#030303}
    .fil0 {fill:#FFBE00}
   ]]>
  </style>
 </defs>
 <g id="Capa_x0020_1">
  <metadata id="CorelCorpID_0Corel-Layer"/>
  <g id="_2764371832640">
   <circle class="fil0 str0" cx="241" cy="241" r="234"/>
   <g>
    <path class="fil1" d="M374 230c-1,0 -2,-3 -9,0 -13,5 -34,27 -13,36 33,14 88,-57 41,-74 -38,-14 -112,13 -147,40 -16,13 -8,-3 -21,18 -8,14 -26,26 -46,30 -66,14 -102,-27 -70,-59 23,-22 75,-42 110,-44 8,-1 32,0 35,-5 4,-5 0,-10 -5,-11 -5,0 -14,0 -19,0 -29,0 -135,-10 -74,-44 26,-15 101,-38 122,-19 -1,15 -34,27 -40,25 1,-6 3,-2 5,-8 -9,-6 -18,8 -18,9 1,29 73,0 61,-25 -6,-12 -20,-21 -36,-22 -37,-3 -120,15 -125,45 -3,14 11,29 23,34 11,4 32,9 46,10 -15,6 -47,5 -80,24 -69,41 -9,127 86,104 21,-5 22,-11 31,-19 7,6 6,11 17,17 18,12 62,15 83,17 18,1 47,3 40,25 -19,57 -137,78 -161,50 -22,-27 49,-41 49,-41 -4,-15 -37,1 -44,5 -11,7 -26,19 -16,37 24,42 101,29 135,12 24,-12 55,-41 49,-69 -12,-48 -82,-29 -130,-47 -23,-8 -12,-26 -1,-35 24,-19 97,-48 133,-43 46,7 -16,54 -35,49 2,-5 7,-9 11,-12 2,-2 4,-3 7,-5 2,0 2,-1 3,-1 3,-3 1,0 3,-4z"/>
    <path class="fil1" d="M210 14c67,-12 139,18 177,50 39,33 74,82 82,147 26,208 -212,338 -373,208 -39,-32 -74,-83 -82,-147 -13,-93 33,-183 111,-229 29,-17 50,-23 85,-29zm271 249c13,-139 -92,-251 -217,-262 -141,-12 -251,92 -263,217 -13,141 92,251 219,263 138,13 250,-91 261,-218z"/>
    <path class="fil1" d="M29 254c-3,-28 5,-67 14,-90 30,-73 96,-129 185,-135 120,-8 220,86 226,199 6,121 -87,220 -200,225 -67,3 -120,-22 -156,-55 -17,-15 -34,-36 -46,-60 -13,-26 -19,-50 -23,-84zm185 -231c-32,5 -56,12 -82,27 -72,42 -123,126 -109,218 17,123 123,206 245,192 112,-13 209,-118 192,-247 -15,-122 -132,-208 -246,-190z"/>
   </g>
  </g>
 </g>
</svg>
